<mxfile host="app.diagrams.net" agent="Mozilla/5.0 (Macintosh; Intel Mac OS X 10_15_7) AppleWebKit/537.36 (KHTML, like Gecko) Chrome/135.0.0.0 Safari/537.36 Edg/135.0.0.0" version="26.2.9">
  <diagram name="Page-1" id="44I8v_HIkJgq6PT9ucsk">
    <mxGraphModel dx="2910" dy="1078" grid="1" gridSize="10" guides="1" tooltips="1" connect="1" arrows="1" fold="1" page="1" pageScale="1" pageWidth="850" pageHeight="1100" math="0" shadow="0">
      <root>
        <mxCell id="0" />
        <mxCell id="1" parent="0" />
        <mxCell id="AF-05BhkCVprNYLnsd81-1" value="delt mailbox (postmottak)" style="shape=image;html=1;verticalAlign=top;verticalLabelPosition=bottom;labelBackgroundColor=#ffffff;imageAspect=0;aspect=fixed;image=https://cdn0.iconfinder.com/data/icons/logos-microsoft-office-365/128/Microsoft_Office-07-128.png" vertex="1" parent="1">
          <mxGeometry x="100" y="50" width="78" height="78" as="geometry" />
        </mxCell>
        <mxCell id="AF-05BhkCVprNYLnsd81-2" value="postmottak-arkivering" style="outlineConnect=0;dashed=0;verticalLabelPosition=bottom;verticalAlign=top;align=center;html=1;shape=mxgraph.aws3.android;fillColor=#115193;gradientColor=none;" vertex="1" parent="1">
          <mxGeometry x="388" y="380" width="73.5" height="84" as="geometry" />
        </mxCell>
        <mxCell id="AF-05BhkCVprNYLnsd81-4" value="Inbox&lt;div&gt;&lt;br&gt;&lt;/div&gt;" style="verticalLabelPosition=bottom;aspect=fixed;html=1;shape=mxgraph.salesforce.inbox;" vertex="1" parent="1">
          <mxGeometry x="70" y="180" width="60" height="45" as="geometry" />
        </mxCell>
        <mxCell id="AF-05BhkCVprNYLnsd81-5" style="edgeStyle=orthogonalEdgeStyle;rounded=0;orthogonalLoop=1;jettySize=auto;html=1;entryX=0.517;entryY=-0.022;entryDx=0;entryDy=0;entryPerimeter=0;" edge="1" parent="1" source="AF-05BhkCVprNYLnsd81-1" target="AF-05BhkCVprNYLnsd81-4">
          <mxGeometry relative="1" as="geometry" />
        </mxCell>
        <mxCell id="AF-05BhkCVprNYLnsd81-6" value="Flyttet av regel" style="image;aspect=fixed;perimeter=ellipsePerimeter;html=1;align=center;shadow=0;dashed=0;spacingTop=3;image=img/lib/active_directory/folder.svg;" vertex="1" parent="1">
          <mxGeometry x="81.75" y="270" width="36.5" height="50" as="geometry" />
        </mxCell>
        <mxCell id="AF-05BhkCVprNYLnsd81-9" style="edgeStyle=orthogonalEdgeStyle;rounded=0;orthogonalLoop=1;jettySize=auto;html=1;entryX=1;entryY=0.75;entryDx=0;entryDy=0;" edge="1" parent="1" source="AF-05BhkCVprNYLnsd81-7" target="AF-05BhkCVprNYLnsd81-6">
          <mxGeometry relative="1" as="geometry">
            <mxPoint x="280" y="330" as="targetPoint" />
            <Array as="points">
              <mxPoint x="240" y="300" />
              <mxPoint x="116" y="300" />
            </Array>
          </mxGeometry>
        </mxCell>
        <mxCell id="AF-05BhkCVprNYLnsd81-10" value="hvis eposten ikke trenger håndtering" style="edgeLabel;html=1;align=center;verticalAlign=middle;resizable=0;points=[];" vertex="1" connectable="0" parent="AF-05BhkCVprNYLnsd81-9">
          <mxGeometry x="-0.1662" y="-4" relative="1" as="geometry">
            <mxPoint x="24" as="offset" />
          </mxGeometry>
        </mxCell>
        <mxCell id="AF-05BhkCVprNYLnsd81-12" style="edgeStyle=orthogonalEdgeStyle;rounded=0;orthogonalLoop=1;jettySize=auto;html=1;entryX=1;entryY=0.75;entryDx=0;entryDy=0;" edge="1" parent="1" source="AF-05BhkCVprNYLnsd81-7" target="AF-05BhkCVprNYLnsd81-11">
          <mxGeometry relative="1" as="geometry">
            <Array as="points">
              <mxPoint x="240" y="406" />
            </Array>
          </mxGeometry>
        </mxCell>
        <mxCell id="AF-05BhkCVprNYLnsd81-13" value="Resten" style="edgeLabel;html=1;align=center;verticalAlign=middle;resizable=0;points=[];" vertex="1" connectable="0" parent="AF-05BhkCVprNYLnsd81-12">
          <mxGeometry x="0.1016" y="1" relative="1" as="geometry">
            <mxPoint as="offset" />
          </mxGeometry>
        </mxCell>
        <mxCell id="AF-05BhkCVprNYLnsd81-7" value="epostregel flytter epost" style="outlineConnect=0;dashed=0;verticalLabelPosition=bottom;verticalAlign=top;align=center;html=1;shape=mxgraph.aws3.rule;fillColor=#5294CF;gradientColor=none;" vertex="1" parent="1">
          <mxGeometry x="220" y="168" width="39.5" height="69" as="geometry" />
        </mxCell>
        <mxCell id="AF-05BhkCVprNYLnsd81-8" style="edgeStyle=orthogonalEdgeStyle;rounded=0;orthogonalLoop=1;jettySize=auto;html=1;entryX=0.901;entryY=0.489;entryDx=0;entryDy=0;entryPerimeter=0;" edge="1" parent="1" source="AF-05BhkCVprNYLnsd81-7" target="AF-05BhkCVprNYLnsd81-4">
          <mxGeometry relative="1" as="geometry" />
        </mxCell>
        <mxCell id="AF-05BhkCVprNYLnsd81-11" value="Robot-input" style="image;aspect=fixed;perimeter=ellipsePerimeter;html=1;align=center;shadow=0;dashed=0;spacingTop=3;image=img/lib/active_directory/folder.svg;" vertex="1" parent="1">
          <mxGeometry x="81.75" y="370" width="36.5" height="50" as="geometry" />
        </mxCell>
        <mxCell id="AF-05BhkCVprNYLnsd81-18" style="edgeStyle=orthogonalEdgeStyle;rounded=0;orthogonalLoop=1;jettySize=auto;html=1;entryX=0.5;entryY=0;entryDx=0;entryDy=0;" edge="1" parent="1" source="AF-05BhkCVprNYLnsd81-14" target="AF-05BhkCVprNYLnsd81-16">
          <mxGeometry relative="1" as="geometry" />
        </mxCell>
        <mxCell id="AF-05BhkCVprNYLnsd81-14" value="Ved gitt intervall" style="html=1;verticalLabelPosition=bottom;align=center;labelBackgroundColor=#ffffff;verticalAlign=top;strokeWidth=2;strokeColor=#0080F0;shadow=0;dashed=0;shape=mxgraph.ios7.icons.gauge;" vertex="1" parent="1">
          <mxGeometry x="408.55" y="510" width="32.4" height="31.5" as="geometry" />
        </mxCell>
        <mxCell id="AF-05BhkCVprNYLnsd81-15" style="edgeStyle=orthogonalEdgeStyle;rounded=0;orthogonalLoop=1;jettySize=auto;html=1;entryX=0.539;entryY=0;entryDx=0;entryDy=0;entryPerimeter=0;" edge="1" parent="1" source="AF-05BhkCVprNYLnsd81-2" target="AF-05BhkCVprNYLnsd81-14">
          <mxGeometry relative="1" as="geometry" />
        </mxCell>
        <mxCell id="AF-05BhkCVprNYLnsd81-17" style="edgeStyle=orthogonalEdgeStyle;rounded=0;orthogonalLoop=1;jettySize=auto;html=1;startArrow=classicThin;startFill=1;" edge="1" parent="1" source="AF-05BhkCVprNYLnsd81-16" target="AF-05BhkCVprNYLnsd81-11">
          <mxGeometry relative="1" as="geometry" />
        </mxCell>
        <mxCell id="AF-05BhkCVprNYLnsd81-16" value="Graph api: Hent eposter fra robot-input" style="shape=image;verticalLabelPosition=bottom;labelBackgroundColor=default;verticalAlign=top;aspect=fixed;imageAspect=0;image=https://www.drupal.org/files/project-images/Graph%20API%20logo.png;" vertex="1" parent="1">
          <mxGeometry x="397" y="590" width="56" height="48.57" as="geometry" />
        </mxCell>
        <mxCell id="AF-05BhkCVprNYLnsd81-20" value="Storage container" style="image;aspect=fixed;html=1;points=[];align=center;fontSize=12;image=img/lib/azure2/general/Storage_Container.svg;" vertex="1" parent="1">
          <mxGeometry x="720" y="464" width="64" height="52" as="geometry" />
        </mxCell>
        <mxCell id="AF-05BhkCVprNYLnsd81-24" style="edgeStyle=orthogonalEdgeStyle;rounded=0;orthogonalLoop=1;jettySize=auto;html=1;startArrow=classic;startFill=1;" edge="1" parent="1" source="AF-05BhkCVprNYLnsd81-22" target="AF-05BhkCVprNYLnsd81-20">
          <mxGeometry relative="1" as="geometry" />
        </mxCell>
        <mxCell id="AF-05BhkCVprNYLnsd81-103" style="edgeStyle=orthogonalEdgeStyle;rounded=0;orthogonalLoop=1;jettySize=auto;html=1;entryX=0.5;entryY=0;entryDx=0;entryDy=0;" edge="1" parent="1" source="AF-05BhkCVprNYLnsd81-22" target="AF-05BhkCVprNYLnsd81-109">
          <mxGeometry relative="1" as="geometry">
            <mxPoint x="425" y="760" as="targetPoint" />
          </mxGeometry>
        </mxCell>
        <mxCell id="AF-05BhkCVprNYLnsd81-22" value="Hent blobber fra mellomlagring" style="verticalLabelPosition=bottom;html=1;verticalAlign=top;align=center;strokeColor=none;fillColor=#00BEF2;shape=mxgraph.azure.storage_blob;" vertex="1" parent="1">
          <mxGeometry x="400" y="680" width="50" height="45" as="geometry" />
        </mxCell>
        <mxCell id="AF-05BhkCVprNYLnsd81-25" value="For hver epost i lista for håndtering" style="html=1;dashed=0;whiteSpace=wrap;shape=mxgraph.dfd.loop" vertex="1" parent="1">
          <mxGeometry x="397" y="1060" width="115" height="60" as="geometry" />
        </mxCell>
        <mxCell id="AF-05BhkCVprNYLnsd81-30" value="Sjekk om e-posten kan håndteres automatisk" style="rounded=0;whiteSpace=wrap;html=1;" vertex="1" parent="1">
          <mxGeometry x="130" y="1015" width="120" height="60" as="geometry" />
        </mxCell>
        <mxCell id="AF-05BhkCVprNYLnsd81-39" style="edgeStyle=orthogonalEdgeStyle;rounded=0;orthogonalLoop=1;jettySize=auto;html=1;entryX=0.5;entryY=0;entryDx=0;entryDy=0;" edge="1" parent="1" source="AF-05BhkCVprNYLnsd81-34" target="AF-05BhkCVprNYLnsd81-36">
          <mxGeometry relative="1" as="geometry" />
        </mxCell>
        <mxCell id="AF-05BhkCVprNYLnsd81-40" value="Niet" style="edgeLabel;html=1;align=center;verticalAlign=middle;resizable=0;points=[];" vertex="1" connectable="0" parent="AF-05BhkCVprNYLnsd81-39">
          <mxGeometry x="-0.04" y="-2" relative="1" as="geometry">
            <mxPoint as="offset" />
          </mxGeometry>
        </mxCell>
        <mxCell id="AF-05BhkCVprNYLnsd81-47" style="edgeStyle=orthogonalEdgeStyle;rounded=0;orthogonalLoop=1;jettySize=auto;html=1;" edge="1" parent="1" source="AF-05BhkCVprNYLnsd81-34" target="AF-05BhkCVprNYLnsd81-44">
          <mxGeometry relative="1" as="geometry" />
        </mxCell>
        <mxCell id="AF-05BhkCVprNYLnsd81-48" value="Ja" style="edgeLabel;html=1;align=center;verticalAlign=middle;resizable=0;points=[];" vertex="1" connectable="0" parent="AF-05BhkCVprNYLnsd81-47">
          <mxGeometry x="-0.1782" y="1" relative="1" as="geometry">
            <mxPoint y="1" as="offset" />
          </mxGeometry>
        </mxCell>
        <mxCell id="AF-05BhkCVprNYLnsd81-34" value="&lt;ul&gt;&lt;li style=&quot;text-align: left;&quot;&gt;Kan vi gjenkjenne basert på gitte konfiguerte regler?&lt;/li&gt;&lt;ul&gt;&lt;li style=&quot;text-align: left;&quot;&gt;Kombinasjoner av emne/avsender/body&lt;/li&gt;&lt;li style=&quot;text-align: left;&quot;&gt;Evt innhold i vedlegg&lt;/li&gt;&lt;/ul&gt;&lt;/ul&gt;" style="rounded=0;whiteSpace=wrap;html=1;dashed=1;" vertex="1" parent="1">
          <mxGeometry x="-60" y="1120" width="310" height="90" as="geometry" />
        </mxCell>
        <mxCell id="AF-05BhkCVprNYLnsd81-35" style="edgeStyle=orthogonalEdgeStyle;rounded=0;orthogonalLoop=1;jettySize=auto;html=1;entryX=0.806;entryY=0;entryDx=0;entryDy=0;entryPerimeter=0;dashed=1;" edge="1" parent="1" source="AF-05BhkCVprNYLnsd81-30" target="AF-05BhkCVprNYLnsd81-34">
          <mxGeometry relative="1" as="geometry" />
        </mxCell>
        <mxCell id="AF-05BhkCVprNYLnsd81-45" style="edgeStyle=orthogonalEdgeStyle;rounded=0;orthogonalLoop=1;jettySize=auto;html=1;" edge="1" parent="1" source="AF-05BhkCVprNYLnsd81-36" target="AF-05BhkCVprNYLnsd81-44">
          <mxGeometry relative="1" as="geometry" />
        </mxCell>
        <mxCell id="AF-05BhkCVprNYLnsd81-46" value="Ja" style="edgeLabel;html=1;align=center;verticalAlign=middle;resizable=0;points=[];" vertex="1" connectable="0" parent="AF-05BhkCVprNYLnsd81-45">
          <mxGeometry x="0.2" y="1" relative="1" as="geometry">
            <mxPoint as="offset" />
          </mxGeometry>
        </mxCell>
        <mxCell id="AF-05BhkCVprNYLnsd81-86" style="edgeStyle=orthogonalEdgeStyle;rounded=0;orthogonalLoop=1;jettySize=auto;html=1;entryX=1;entryY=0.5;entryDx=0;entryDy=0;" edge="1" parent="1" source="AF-05BhkCVprNYLnsd81-36" target="AF-05BhkCVprNYLnsd81-85">
          <mxGeometry relative="1" as="geometry" />
        </mxCell>
        <mxCell id="AF-05BhkCVprNYLnsd81-88" value="Nei" style="edgeLabel;html=1;align=center;verticalAlign=middle;resizable=0;points=[];" vertex="1" connectable="0" parent="AF-05BhkCVprNYLnsd81-86">
          <mxGeometry x="-0.3946" y="4" relative="1" as="geometry">
            <mxPoint as="offset" />
          </mxGeometry>
        </mxCell>
        <mxCell id="AF-05BhkCVprNYLnsd81-36" value="&lt;ul&gt;&lt;li style=&quot;text-align: left;&quot;&gt;Kan vi gjenkjenne basert på KI-gjenkjenning?&lt;/li&gt;&lt;ul&gt;&lt;li style=&quot;text-align: left;&quot;&gt;Noe fancy&lt;/li&gt;&lt;/ul&gt;&lt;/ul&gt;" style="rounded=0;whiteSpace=wrap;html=1;dashed=1;" vertex="1" parent="1">
          <mxGeometry x="-60" y="1250" width="310" height="90" as="geometry" />
        </mxCell>
        <mxCell id="AF-05BhkCVprNYLnsd81-41" value="Trenger manuell&lt;br&gt;håndtering" style="image;aspect=fixed;perimeter=ellipsePerimeter;html=1;align=center;shadow=0;dashed=0;spacingTop=3;image=img/lib/active_directory/folder.svg;" vertex="1" parent="1">
          <mxGeometry x="-20" y="370" width="36.5" height="50" as="geometry" />
        </mxCell>
        <mxCell id="AF-05BhkCVprNYLnsd81-50" style="edgeStyle=orthogonalEdgeStyle;rounded=0;orthogonalLoop=1;jettySize=auto;html=1;entryX=0.5;entryY=0;entryDx=0;entryDy=0;dashed=1;" edge="1" parent="1" source="AF-05BhkCVprNYLnsd81-44" target="AF-05BhkCVprNYLnsd81-49">
          <mxGeometry relative="1" as="geometry" />
        </mxCell>
        <mxCell id="AF-05BhkCVprNYLnsd81-44" value="Sett opp jobben for hvordan e-posten skal håndteres, basert på type e-post" style="rounded=0;whiteSpace=wrap;html=1;" vertex="1" parent="1">
          <mxGeometry x="359" y="1200" width="120" height="60" as="geometry" />
        </mxCell>
        <mxCell id="AF-05BhkCVprNYLnsd81-52" style="edgeStyle=orthogonalEdgeStyle;rounded=0;orthogonalLoop=1;jettySize=auto;html=1;startArrow=classic;startFill=1;" edge="1" parent="1" source="AF-05BhkCVprNYLnsd81-49" target="AF-05BhkCVprNYLnsd81-51">
          <mxGeometry relative="1" as="geometry" />
        </mxCell>
        <mxCell id="AF-05BhkCVprNYLnsd81-55" style="edgeStyle=orthogonalEdgeStyle;rounded=0;orthogonalLoop=1;jettySize=auto;html=1;" edge="1" parent="1" source="AF-05BhkCVprNYLnsd81-49" target="AF-05BhkCVprNYLnsd81-54">
          <mxGeometry relative="1" as="geometry" />
        </mxCell>
        <mxCell id="AF-05BhkCVprNYLnsd81-49" value="&lt;ul&gt;&lt;li style=&quot;&quot;&gt;Hent jobb-oppsett for denne typen e-post&lt;/li&gt;&lt;li style=&quot;&quot;&gt;Gjør klar alle steg som skal gjennomføres, eks:&lt;/li&gt;&lt;ul&gt;&lt;li style=&quot;&quot;&gt;Finn avsender&lt;/li&gt;&lt;li style=&quot;&quot;&gt;Sjekk at avsender finnes som kontakt (privatperson / organisasjon) i arkivet&lt;/li&gt;&lt;li style=&quot;&quot;&gt;Sjekk om sak allerede eksisterer&lt;/li&gt;&lt;ul&gt;&lt;li style=&quot;&quot;&gt;Hvis nei, opprett sak&lt;/li&gt;&lt;li style=&quot;&quot;&gt;Hvis ja, mellomlagre saksnummer for videre bruk&lt;/li&gt;&lt;/ul&gt;&lt;li&gt;Opprett saksdokument med korrekte metadata basert på innhold og konfigurasjon for typen&lt;/li&gt;&lt;li&gt;Avskriv dokumentet dersom det skal avskrives&lt;/li&gt;&lt;li&gt;Send svar til avsender dersom det skal gjøres&lt;/li&gt;&lt;/ul&gt;&lt;/ul&gt;" style="rounded=0;whiteSpace=wrap;html=1;dashed=1;align=left;" vertex="1" parent="1">
          <mxGeometry x="230" y="1360" width="350.37" height="239" as="geometry" />
        </mxCell>
        <mxCell id="AF-05BhkCVprNYLnsd81-51" value="Konfig-filer for alle kjente e-posttyper vi kan håndtere" style="image;aspect=fixed;html=1;points=[];align=center;fontSize=12;image=img/lib/azure2/general/Code.svg;" vertex="1" parent="1">
          <mxGeometry x="-30" y="1430" width="64" height="52" as="geometry" />
        </mxCell>
        <mxCell id="AF-05BhkCVprNYLnsd81-60" style="edgeStyle=orthogonalEdgeStyle;rounded=0;orthogonalLoop=1;jettySize=auto;html=1;entryX=0.5;entryY=0;entryDx=0;entryDy=0;" edge="1" parent="1" source="AF-05BhkCVprNYLnsd81-54" target="AF-05BhkCVprNYLnsd81-59">
          <mxGeometry relative="1" as="geometry" />
        </mxCell>
        <mxCell id="AF-05BhkCVprNYLnsd81-54" value="Start sekvensiell kjøring av steg som ikke er fullført" style="rounded=0;whiteSpace=wrap;html=1;" vertex="1" parent="1">
          <mxGeometry x="345.18" y="1650" width="120" height="60" as="geometry" />
        </mxCell>
        <mxCell id="AF-05BhkCVprNYLnsd81-63" style="edgeStyle=orthogonalEdgeStyle;rounded=0;orthogonalLoop=1;jettySize=auto;html=1;" edge="1" parent="1" source="AF-05BhkCVprNYLnsd81-56" target="AF-05BhkCVprNYLnsd81-61">
          <mxGeometry relative="1" as="geometry" />
        </mxCell>
        <mxCell id="AF-05BhkCVprNYLnsd81-64" value="Nei" style="edgeLabel;html=1;align=center;verticalAlign=middle;resizable=0;points=[];" vertex="1" connectable="0" parent="AF-05BhkCVprNYLnsd81-63">
          <mxGeometry x="-0.2414" y="2" relative="1" as="geometry">
            <mxPoint as="offset" />
          </mxGeometry>
        </mxCell>
        <mxCell id="AF-05BhkCVprNYLnsd81-66" style="edgeStyle=orthogonalEdgeStyle;rounded=0;orthogonalLoop=1;jettySize=auto;html=1;entryX=1;entryY=0.75;entryDx=0;entryDy=0;" edge="1" parent="1" source="AF-05BhkCVprNYLnsd81-56" target="AF-05BhkCVprNYLnsd81-54">
          <mxGeometry relative="1" as="geometry">
            <Array as="points">
              <mxPoint x="724" y="1695" />
            </Array>
          </mxGeometry>
        </mxCell>
        <mxCell id="AF-05BhkCVprNYLnsd81-56" value="Er det klart for&lt;br&gt;retry" style="rhombus;whiteSpace=wrap;html=1;" vertex="1" parent="1">
          <mxGeometry x="670" y="1000" width="108" height="90" as="geometry" />
        </mxCell>
        <mxCell id="AF-05BhkCVprNYLnsd81-68" style="edgeStyle=orthogonalEdgeStyle;rounded=0;orthogonalLoop=1;jettySize=auto;html=1;" edge="1" parent="1" source="AF-05BhkCVprNYLnsd81-59" target="AF-05BhkCVprNYLnsd81-67">
          <mxGeometry relative="1" as="geometry" />
        </mxCell>
        <mxCell id="AF-05BhkCVprNYLnsd81-69" value="Error" style="edgeLabel;html=1;align=center;verticalAlign=middle;resizable=0;points=[];" vertex="1" connectable="0" parent="AF-05BhkCVprNYLnsd81-68">
          <mxGeometry x="0.073" y="2" relative="1" as="geometry">
            <mxPoint as="offset" />
          </mxGeometry>
        </mxCell>
        <mxCell id="AF-05BhkCVprNYLnsd81-80" style="edgeStyle=orthogonalEdgeStyle;rounded=0;orthogonalLoop=1;jettySize=auto;html=1;" edge="1" parent="1" source="AF-05BhkCVprNYLnsd81-59" target="AF-05BhkCVprNYLnsd81-78">
          <mxGeometry relative="1" as="geometry" />
        </mxCell>
        <mxCell id="AF-05BhkCVprNYLnsd81-87" style="edgeStyle=orthogonalEdgeStyle;rounded=0;orthogonalLoop=1;jettySize=auto;html=1;entryX=1;entryY=0.5;entryDx=0;entryDy=0;" edge="1" parent="1" source="AF-05BhkCVprNYLnsd81-59" target="AF-05BhkCVprNYLnsd81-84">
          <mxGeometry relative="1" as="geometry" />
        </mxCell>
        <mxCell id="AF-05BhkCVprNYLnsd81-59" value="&lt;ul&gt;&lt;li&gt;Hent riktig jobb/metode som skal kjøres&lt;br&gt;&lt;/li&gt;&lt;li&gt;Klargjør data (enten plukk fra e-post/tidligere jobber, eller bruk KI til å hente data vi trenger fra epost)&lt;/li&gt;&lt;li&gt;Kjør jobb/metode med dataene&lt;/li&gt;&lt;li&gt;Lagre resultatet, og ta med videre til neste jobb/metode&lt;/li&gt;&lt;/ul&gt;" style="rounded=1;whiteSpace=wrap;html=1;align=left;" vertex="1" parent="1">
          <mxGeometry x="249.02" y="1750" width="312.32" height="150" as="geometry" />
        </mxCell>
        <mxCell id="AF-05BhkCVprNYLnsd81-61" value="Stå i ro og vent" style="shape=umlActor;verticalLabelPosition=bottom;verticalAlign=top;html=1;outlineConnect=0;" vertex="1" parent="1">
          <mxGeometry x="860" y="1015" width="30" height="60" as="geometry" />
        </mxCell>
        <mxCell id="AF-05BhkCVprNYLnsd81-67" value="Noe feilet!" style="html=1;whiteSpace=wrap;strokeColor=none;fillColor=#0079D6;labelPosition=center;verticalLabelPosition=middle;verticalAlign=top;align=center;fontSize=12;outlineConnect=0;spacingTop=-6;fontColor=#FFFFFF;sketch=0;shape=mxgraph.sitemap.error;" vertex="1" parent="1">
          <mxGeometry x="680" y="1790" width="120" height="70" as="geometry" />
        </mxCell>
        <mxCell id="AF-05BhkCVprNYLnsd81-70" style="edgeStyle=orthogonalEdgeStyle;rounded=0;orthogonalLoop=1;jettySize=auto;html=1;entryX=1;entryY=0.442;entryDx=0;entryDy=0;entryPerimeter=0;" edge="1" parent="1" source="AF-05BhkCVprNYLnsd81-67" target="AF-05BhkCVprNYLnsd81-20">
          <mxGeometry relative="1" as="geometry">
            <Array as="points">
              <mxPoint x="940" y="1705" />
              <mxPoint x="940" y="487" />
            </Array>
          </mxGeometry>
        </mxCell>
        <mxCell id="AF-05BhkCVprNYLnsd81-71" value="Lagre til blob med retry timestamp&lt;br&gt;så vi kan plukke opp kjøringen fra der vi slapp" style="edgeLabel;html=1;align=center;verticalAlign=middle;resizable=0;points=[];" vertex="1" connectable="0" parent="AF-05BhkCVprNYLnsd81-70">
          <mxGeometry x="-0.4108" y="1" relative="1" as="geometry">
            <mxPoint as="offset" />
          </mxGeometry>
        </mxCell>
        <mxCell id="AF-05BhkCVprNYLnsd81-78" value="Alle jobber har gått bra" style="sketch=0;html=1;aspect=fixed;strokeColor=none;shadow=0;align=center;fillColor=#2D9C5E;verticalAlign=top;labelPosition=center;verticalLabelPosition=bottom;shape=mxgraph.gcp2.check" vertex="1" parent="1">
          <mxGeometry x="365.18" y="1930" width="100" height="80" as="geometry" />
        </mxCell>
        <mxCell id="AF-05BhkCVprNYLnsd81-94" style="edgeStyle=orthogonalEdgeStyle;rounded=0;orthogonalLoop=1;jettySize=auto;html=1;" edge="1" parent="1" source="AF-05BhkCVprNYLnsd81-81" target="AF-05BhkCVprNYLnsd81-93">
          <mxGeometry relative="1" as="geometry">
            <Array as="points">
              <mxPoint x="-400" y="2010" />
              <mxPoint x="-400" y="295" />
            </Array>
          </mxGeometry>
        </mxCell>
        <mxCell id="AF-05BhkCVprNYLnsd81-95" value="Flytt eposten til automatisk behandlet mappe" style="edgeLabel;html=1;align=center;verticalAlign=middle;resizable=0;points=[];" vertex="1" connectable="0" parent="AF-05BhkCVprNYLnsd81-94">
          <mxGeometry x="-0.8404" y="-4" relative="1" as="geometry">
            <mxPoint as="offset" />
          </mxGeometry>
        </mxCell>
        <mxCell id="AF-05BhkCVprNYLnsd81-81" value="&lt;ul&gt;&lt;li&gt;Sett en status på e-posten på en eller annen måte, som sier til arkivet hva som har skjedd.&lt;br&gt;&lt;/li&gt;&lt;li&gt;Enten en reply, eller en redigering av selve e-posten, eller noe annet kult.&lt;/li&gt;&lt;li&gt;Slett mellomlagrede data&lt;/li&gt;&lt;li&gt;Lagre noe data vi trenger&lt;/li&gt;&lt;li&gt;Statistikk for skryting til sjefene&lt;br&gt;&lt;/li&gt;&lt;li&gt;Flytt til automatisk behandlet - ta med ny id&lt;/li&gt;&lt;/ul&gt;" style="rounded=0;whiteSpace=wrap;html=1;align=left;" vertex="1" parent="1">
          <mxGeometry x="271.18" y="2080" width="298.82" height="210" as="geometry" />
        </mxCell>
        <mxCell id="AF-05BhkCVprNYLnsd81-83" style="edgeStyle=orthogonalEdgeStyle;rounded=0;orthogonalLoop=1;jettySize=auto;html=1;entryX=0.537;entryY=-0.02;entryDx=0;entryDy=0;entryPerimeter=0;" edge="1" parent="1" source="AF-05BhkCVprNYLnsd81-78" target="AF-05BhkCVprNYLnsd81-81">
          <mxGeometry relative="1" as="geometry" />
        </mxCell>
        <mxCell id="AF-05BhkCVprNYLnsd81-84" value="Statistikk underveis&lt;br&gt;for overvåking" style="rounded=0;whiteSpace=wrap;html=1;" vertex="1" parent="1">
          <mxGeometry x="70" y="1795" width="120" height="60" as="geometry" />
        </mxCell>
        <mxCell id="AF-05BhkCVprNYLnsd81-116" style="edgeStyle=orthogonalEdgeStyle;rounded=0;orthogonalLoop=1;jettySize=auto;html=1;" edge="1" parent="1" source="AF-05BhkCVprNYLnsd81-85" target="AF-05BhkCVprNYLnsd81-41">
          <mxGeometry relative="1" as="geometry" />
        </mxCell>
        <mxCell id="AF-05BhkCVprNYLnsd81-117" value="Flytt epost" style="edgeLabel;html=1;align=center;verticalAlign=middle;resizable=0;points=[];" vertex="1" connectable="0" parent="AF-05BhkCVprNYLnsd81-116">
          <mxGeometry x="-0.1902" y="1" relative="1" as="geometry">
            <mxPoint as="offset" />
          </mxGeometry>
        </mxCell>
        <mxCell id="AF-05BhkCVprNYLnsd81-85" value="Statistikk for hvor mye arkivet må gjøre" style="rounded=0;whiteSpace=wrap;html=1;" vertex="1" parent="1">
          <mxGeometry x="-280" y="1040" width="120" height="60" as="geometry" />
        </mxCell>
        <mxCell id="AF-05BhkCVprNYLnsd81-90" style="edgeStyle=orthogonalEdgeStyle;rounded=0;orthogonalLoop=1;jettySize=auto;html=1;entryX=0.5;entryY=1;entryDx=0;entryDy=0;entryPerimeter=0;" edge="1" parent="1" source="AF-05BhkCVprNYLnsd81-81" target="AF-05BhkCVprNYLnsd81-67">
          <mxGeometry relative="1" as="geometry" />
        </mxCell>
        <mxCell id="AF-05BhkCVprNYLnsd81-91" value="Error" style="edgeLabel;html=1;align=center;verticalAlign=middle;resizable=0;points=[];" vertex="1" connectable="0" parent="AF-05BhkCVprNYLnsd81-90">
          <mxGeometry x="-0.6694" y="2" relative="1" as="geometry">
            <mxPoint as="offset" />
          </mxGeometry>
        </mxCell>
        <mxCell id="AF-05BhkCVprNYLnsd81-93" value="Automatisk behandlet" style="image;aspect=fixed;perimeter=ellipsePerimeter;html=1;align=center;shadow=0;dashed=0;spacingTop=3;image=img/lib/active_directory/folder.svg;" vertex="1" parent="1">
          <mxGeometry x="-40" y="270" width="36.5" height="50" as="geometry" />
        </mxCell>
        <mxCell id="AF-05BhkCVprNYLnsd81-101" style="edgeStyle=orthogonalEdgeStyle;rounded=0;orthogonalLoop=1;jettySize=auto;html=1;entryX=0.5;entryY=0;entryDx=0;entryDy=0;entryPerimeter=0;" edge="1" parent="1" source="AF-05BhkCVprNYLnsd81-16" target="AF-05BhkCVprNYLnsd81-22">
          <mxGeometry relative="1" as="geometry" />
        </mxCell>
        <mxCell id="AF-05BhkCVprNYLnsd81-110" style="edgeStyle=orthogonalEdgeStyle;rounded=0;orthogonalLoop=1;jettySize=auto;html=1;entryX=0.5;entryY=0;entryDx=0;entryDy=0;" edge="1" parent="1" source="AF-05BhkCVprNYLnsd81-109" target="AF-05BhkCVprNYLnsd81-56">
          <mxGeometry relative="1" as="geometry" />
        </mxCell>
        <mxCell id="AF-05BhkCVprNYLnsd81-111" value="Ja" style="edgeLabel;html=1;align=center;verticalAlign=middle;resizable=0;points=[];" vertex="1" connectable="0" parent="AF-05BhkCVprNYLnsd81-110">
          <mxGeometry x="-0.0275" y="-1" relative="1" as="geometry">
            <mxPoint as="offset" />
          </mxGeometry>
        </mxCell>
        <mxCell id="AF-05BhkCVprNYLnsd81-113" style="edgeStyle=orthogonalEdgeStyle;rounded=0;orthogonalLoop=1;jettySize=auto;html=1;entryX=0.5;entryY=0;entryDx=0;entryDy=0;" edge="1" parent="1" source="AF-05BhkCVprNYLnsd81-109" target="AF-05BhkCVprNYLnsd81-30">
          <mxGeometry relative="1" as="geometry" />
        </mxCell>
        <mxCell id="AF-05BhkCVprNYLnsd81-114" value="Nei" style="edgeLabel;html=1;align=center;verticalAlign=middle;resizable=0;points=[];" vertex="1" connectable="0" parent="AF-05BhkCVprNYLnsd81-113">
          <mxGeometry x="-0.2889" relative="1" as="geometry">
            <mxPoint as="offset" />
          </mxGeometry>
        </mxCell>
        <mxCell id="AF-05BhkCVprNYLnsd81-109" value="Har vi eposten allerede i blob?" style="rounded=0;whiteSpace=wrap;html=1;" vertex="1" parent="1">
          <mxGeometry x="365" y="850" width="120" height="50" as="geometry" />
        </mxCell>
        <mxCell id="AF-05BhkCVprNYLnsd81-115" style="edgeStyle=orthogonalEdgeStyle;rounded=0;orthogonalLoop=1;jettySize=auto;html=1;entryX=0.433;entryY=0.967;entryDx=0;entryDy=0;entryPerimeter=0;" edge="1" parent="1" source="AF-05BhkCVprNYLnsd81-34" target="AF-05BhkCVprNYLnsd81-85">
          <mxGeometry relative="1" as="geometry" />
        </mxCell>
      </root>
    </mxGraphModel>
  </diagram>
</mxfile>
